<svg width="602" height="111" viewBox="0 0 602 111" fill="none" xmlns="http://www.w3.org/2000/svg">
<path d="M1.232 15V3.72H5.424C6.68267 3.72 7.74933 3.93867 8.624 4.376C9.50933 4.81333 10.1813 5.45333 10.64 6.296C11.1093 7.128 11.344 8.14667 11.344 9.352C11.344 10.5573 11.1093 11.5813 10.64 12.424C10.1813 13.2667 9.50933 13.9067 8.624 14.344C7.74933 14.7813 6.68267 15 5.424 15H1.232ZM3.28 13.304H5.296C6.608 13.304 7.584 12.9787 8.224 12.328C8.87467 11.6667 9.2 10.6747 9.2 9.352C9.2 8.02933 8.87467 7.04267 8.224 6.392C7.57333 5.74133 6.59733 5.416 5.296 5.416H3.28V13.304ZM15.8035 15.16C15.2382 15.16 14.7315 15.0533 14.2835 14.84C13.8462 14.616 13.4995 14.3173 13.2435 13.944C12.9982 13.5707 12.8755 13.1493 12.8755 12.68C12.8755 12.104 13.0248 11.6507 13.3235 11.32C13.6222 10.9787 14.1075 10.7333 14.7795 10.584C15.4515 10.4347 16.3528 10.36 17.4835 10.36H18.2835V11.512H17.4995C16.9982 11.512 16.5768 11.5333 16.2355 11.576C15.8942 11.608 15.6168 11.6667 15.4035 11.752C15.2008 11.8267 15.0515 11.9333 14.9555 12.072C14.8702 12.2107 14.8275 12.3813 14.8275 12.584C14.8275 12.936 14.9502 13.224 15.1955 13.448C15.4408 13.672 15.7822 13.784 16.2195 13.784C16.5715 13.784 16.8808 13.704 17.1475 13.544C17.4248 13.3733 17.6435 13.144 17.8035 12.856C17.9635 12.568 18.0435 12.2373 18.0435 11.864V10.024C18.0435 9.49067 17.9262 9.10667 17.6915 8.872C17.4568 8.63733 17.0622 8.52 16.5075 8.52C16.0702 8.52 15.6222 8.58933 15.1635 8.728C14.7048 8.856 14.2408 9.05867 13.7715 9.336L13.1955 7.976C13.4728 7.784 13.7982 7.61867 14.1715 7.48C14.5555 7.33067 14.9555 7.21867 15.3715 7.144C15.7982 7.05867 16.1982 7.016 16.5715 7.016C17.3395 7.016 17.9688 7.13333 18.4595 7.368C18.9608 7.60267 19.3342 7.96 19.5795 8.44C19.8248 8.90933 19.9475 9.51733 19.9475 10.264V15H18.0755V13.336H18.2035C18.1288 13.7093 17.9795 14.0347 17.7555 14.312C17.5422 14.5787 17.2702 14.7867 16.9395 14.936C16.6088 15.0853 16.2302 15.16 15.8035 15.16ZM25.5615 15.16C24.5162 15.16 23.7375 14.8987 23.2255 14.376C22.7135 13.8533 22.4575 13.0907 22.4575 12.088V8.68H20.9535V7.176H22.4575V4.84H24.4575V7.176H26.8255V8.68H24.4575V11.976C24.4575 12.488 24.5695 12.872 24.7935 13.128C25.0175 13.384 25.3802 13.512 25.8815 13.512C26.0308 13.512 26.1855 13.496 26.3455 13.464C26.5055 13.4213 26.6708 13.3787 26.8415 13.336L27.1455 14.808C26.9535 14.9147 26.7082 15 26.4095 15.064C26.1215 15.128 25.8388 15.16 25.5615 15.16ZM31.896 15.16C31.0107 15.16 30.248 14.9947 29.608 14.664C28.968 14.3333 28.472 13.864 28.12 13.256C27.7787 12.648 27.608 11.928 27.608 11.096C27.608 10.2853 27.7733 9.576 28.104 8.968C28.4453 8.36 28.9093 7.88533 29.496 7.544C30.0933 7.192 30.7707 7.016 31.528 7.016C32.2747 7.016 32.9147 7.176 33.448 7.496C33.9813 7.816 34.392 8.26933 34.68 8.856C34.9787 9.44267 35.128 10.1413 35.128 10.952V11.544H29.224V10.392H33.72L33.464 10.632C33.464 9.90667 33.304 9.352 32.984 8.968C32.664 8.57333 32.2053 8.376 31.608 8.376C31.16 8.376 30.776 8.48267 30.456 8.696C30.1467 8.89867 29.9067 9.192 29.736 9.576C29.576 9.94933 29.496 10.3973 29.496 10.92V11.032C29.496 11.6187 29.5867 12.104 29.768 12.488C29.9493 12.872 30.2213 13.16 30.584 13.352C30.9467 13.544 31.3947 13.64 31.928 13.64C32.3653 13.64 32.8027 13.576 33.24 13.448C33.6773 13.3093 34.0773 13.096 34.44 12.808L35 14.152C34.6267 14.4613 34.1573 14.7067 33.592 14.888C33.0267 15.0693 32.4613 15.16 31.896 15.16Z" fill="black"/>
<path d="M9.044 42.7085V34.2485H14.384V35.0765H10.004V38.0045H14.132V38.8325H10.004V41.8805H14.384V42.7085H9.044ZM15.9081 42.7085V36.8765H16.8561V38.1725H16.7241C16.8921 37.7085 17.1641 37.3605 17.5401 37.1285C17.9241 36.8885 18.3641 36.7685 18.8601 36.7685C19.3241 36.7685 19.7081 36.8525 20.0121 37.0205C20.3241 37.1805 20.5561 37.4325 20.7081 37.7765C20.8601 38.1205 20.9361 38.5525 20.9361 39.0725V42.7085H19.9641V39.1325C19.9641 38.7725 19.9161 38.4765 19.8201 38.2445C19.7321 38.0125 19.5881 37.8405 19.3881 37.7285C19.1961 37.6165 18.9441 37.5605 18.6321 37.5605C18.2801 37.5605 17.9721 37.6365 17.7081 37.7885C17.4441 37.9405 17.2401 38.1525 17.0961 38.4245C16.9521 38.6965 16.8801 39.0165 16.8801 39.3845V42.7085H15.9081ZM25.0684 42.8165C24.3804 42.8165 23.8644 42.6325 23.5204 42.2645C23.1764 41.8965 23.0044 41.3725 23.0044 40.6925V37.6325H21.8644V36.8765H23.0044V35.0885H23.9764V36.8765H25.8244V37.6325H23.9764V40.5965C23.9764 41.0525 24.0724 41.4005 24.2644 41.6405C24.4564 41.8725 24.7684 41.9885 25.2004 41.9885C25.3284 41.9885 25.4564 41.9725 25.5844 41.9405C25.7124 41.9085 25.8284 41.8765 25.9324 41.8445L26.1004 42.5885C25.9964 42.6445 25.8444 42.6965 25.6444 42.7445C25.4444 42.7925 25.2524 42.8165 25.0684 42.8165ZM29.4931 42.8165C28.8771 42.8165 28.3451 42.6965 27.8971 42.4565C27.4571 42.2085 27.1131 41.8605 26.8651 41.4125C26.6251 40.9645 26.5051 40.4285 26.5051 39.8045C26.5051 39.1965 26.6251 38.6685 26.8651 38.2205C27.1051 37.7645 27.4331 37.4085 27.8491 37.1525C28.2731 36.8965 28.7611 36.7685 29.3131 36.7685C29.8411 36.7685 30.2931 36.8845 30.6691 37.1165C31.0451 37.3485 31.3331 37.6765 31.5331 38.1005C31.7411 38.5245 31.8451 39.0325 31.8451 39.6245V39.9965H27.2491V39.3605H31.1971L31.0051 39.5165C31.0051 38.8765 30.8611 38.3805 30.5731 38.0285C30.2931 37.6685 29.8811 37.4885 29.3371 37.4885C28.9291 37.4885 28.5811 37.5845 28.2931 37.7765C28.0131 37.9605 27.8011 38.2205 27.6571 38.5565C27.5131 38.8845 27.4411 39.2685 27.4411 39.7085V39.7805C27.4411 40.2685 27.5171 40.6805 27.6691 41.0165C27.8291 41.3525 28.0651 41.6085 28.3771 41.7845C28.6891 41.9525 29.0611 42.0365 29.4931 42.0365C29.8371 42.0365 30.1691 41.9845 30.4891 41.8805C30.8171 41.7685 31.1251 41.5885 31.4131 41.3405L31.7491 42.0245C31.4851 42.2645 31.1491 42.4565 30.7411 42.6005C30.3331 42.7445 29.9171 42.8165 29.4931 42.8165ZM27.5371 36.0965L28.8451 33.6725H29.7811L31.0891 36.0965H30.4171L29.3131 34.3205L28.2091 36.0965H27.5371ZM35.5918 42.8165C34.9038 42.8165 34.3878 42.6325 34.0438 42.2645C33.6998 41.8965 33.5278 41.3725 33.5278 40.6925V37.6325H32.3878V36.8765H33.5278V35.0885H34.4998V36.8765H36.3478V37.6325H34.4998V40.5965C34.4998 41.0525 34.5958 41.4005 34.7878 41.6405C34.9798 41.8725 35.2918 41.9885 35.7238 41.9885C35.8518 41.9885 35.9798 41.9725 36.1078 41.9405C36.2358 41.9085 36.3518 41.8765 36.4558 41.8445L36.6238 42.5885C36.5198 42.6445 36.3678 42.6965 36.1678 42.7445C35.9678 42.7925 35.7758 42.8165 35.5918 42.8165ZM40.0166 42.8165C39.4006 42.8165 38.8686 42.6965 38.4206 42.4565C37.9806 42.2085 37.6366 41.8605 37.3886 41.4125C37.1486 40.9645 37.0286 40.4285 37.0286 39.8045C37.0286 39.1965 37.1486 38.6685 37.3886 38.2205C37.6286 37.7645 37.9566 37.4085 38.3726 37.1525C38.7966 36.8965 39.2846 36.7685 39.8366 36.7685C40.3646 36.7685 40.8166 36.8845 41.1926 37.1165C41.5686 37.3485 41.8566 37.6765 42.0566 38.1005C42.2646 38.5245 42.3686 39.0325 42.3686 39.6245V39.9965H37.7726V39.3605H41.7206L41.5286 39.5165C41.5286 38.8765 41.3846 38.3805 41.0966 38.0285C40.8166 37.6685 40.4046 37.4885 39.8606 37.4885C39.4526 37.4885 39.1046 37.5845 38.8166 37.7765C38.5366 37.9605 38.3246 38.2205 38.1806 38.5565C38.0366 38.8845 37.9646 39.2685 37.9646 39.7085V39.7805C37.9646 40.2685 38.0406 40.6805 38.1926 41.0165C38.3526 41.3525 38.5886 41.6085 38.9006 41.7845C39.2126 41.9525 39.5846 42.0365 40.0166 42.0365C40.3606 42.0365 40.6926 41.9845 41.0126 41.8805C41.3406 41.7685 41.6486 41.5885 41.9366 41.3405L42.2726 42.0245C42.0086 42.2645 41.6726 42.4565 41.2646 42.6005C40.8566 42.7445 40.4406 42.8165 40.0166 42.8165Z" fill="#626769"/>
<g filter="url(#filter0_i_34_10622)">
<mask id="path-3-inside-1_34_10622" fill="white">
<path d="M0 50.7085C0 48.4994 1.79086 46.7085 4 46.7085H231C233.209 46.7085 235 48.4994 235 50.7085V74.7085C235 76.9176 233.209 78.7085 231 78.7085H4.00001C1.79087 78.7085 0 76.9176 0 74.7085V50.7085Z"/>
</mask>
<path d="M4 46.7085V47.7085H231V46.7085V45.7085H4V46.7085ZM235 50.7085H234V74.7085H235H236V50.7085H235ZM231 78.7085V77.7085H4.00001V78.7085V79.7085H231V78.7085ZM0 74.7085H1V50.7085H0H-1V74.7085H0ZM4.00001 78.7085V77.7085C2.34315 77.7085 1 76.3653 1 74.7085H0H-1C-1 77.4699 1.23858 79.7085 4.00001 79.7085V78.7085ZM235 74.7085H234C234 76.3654 232.657 77.7085 231 77.7085V78.7085V79.7085C233.761 79.7085 236 77.4699 236 74.7085H235ZM231 46.7085V47.7085C232.657 47.7085 234 49.0516 234 50.7085H235H236C236 47.9471 233.761 45.7085 231 45.7085V46.7085ZM4 46.7085V45.7085C1.23858 45.7085 -1 47.9471 -1 50.7085H0H1C1 49.0516 2.34315 47.7085 4 47.7085V46.7085Z" fill="#A1A1A0" mask="url(#path-3-inside-1_34_10622)"/>
<path d="M12.375 67.7085H9.23295V57.5267H12.5142C13.5019 57.5267 14.3471 57.7305 15.0497 58.1382C15.7524 58.5425 16.291 59.1242 16.6655 59.8832C17.04 60.6389 17.2273 61.5437 17.2273 62.5977C17.2273 63.6583 17.0384 64.5714 16.6605 65.337C16.2827 66.0994 15.7325 66.686 15.0099 67.097C14.2874 67.5047 13.4091 67.7085 12.375 67.7085ZM10.4659 66.6147H12.2955C13.1373 66.6147 13.835 66.4523 14.3885 66.1275C14.942 65.8027 15.3546 65.3404 15.6264 64.7405C15.8982 64.1406 16.0341 63.4263 16.0341 62.5977C16.0341 61.7757 15.8999 61.0681 15.6314 60.4748C15.3629 59.8782 14.9619 59.4209 14.4283 59.1027C13.8946 58.7812 13.2301 58.6204 12.4347 58.6204H10.4659V66.6147ZM21.3835 67.8875C20.8996 67.8875 20.4605 67.7963 20.0661 67.614C19.6716 67.4284 19.3584 67.1616 19.1264 66.8136C18.8944 66.4623 18.7784 66.038 18.7784 65.5409C18.7784 65.1034 18.8646 64.7487 19.0369 64.477C19.2093 64.2019 19.4396 63.9864 19.728 63.8307C20.0163 63.6749 20.3345 63.5589 20.6825 63.4826C21.0339 63.4031 21.3868 63.3401 21.7415 63.2937C22.2055 63.2341 22.5817 63.1893 22.87 63.1595C23.1617 63.1263 23.3738 63.0717 23.5064 62.9954C23.6423 62.9192 23.7102 62.7866 23.7102 62.5977V62.5579C23.7102 62.0674 23.576 61.6862 23.3075 61.4145C23.0424 61.1427 22.6397 61.0068 22.0994 61.0068C21.5393 61.0068 21.1001 61.1294 20.782 61.3747C20.4638 61.62 20.2401 61.8818 20.1108 62.1602L18.9972 61.7625C19.196 61.2985 19.4612 60.9372 19.7926 60.6787C20.1274 60.4168 20.492 60.2345 20.8864 60.1318C21.2841 60.0257 21.6752 59.9727 22.0597 59.9727C22.3049 59.9727 22.5866 60.0025 22.9048 60.0622C23.2263 60.1185 23.5362 60.2362 23.8345 60.4152C24.1361 60.5941 24.3864 60.8643 24.5852 61.2255C24.7841 61.5868 24.8835 62.0707 24.8835 62.6772V67.7085H23.7102V66.6744H23.6506C23.571 66.8401 23.4384 67.0174 23.2528 67.2064C23.0672 67.3953 22.8203 67.556 22.5121 67.6886C22.2038 67.8212 21.8277 67.8875 21.3835 67.8875ZM21.5625 66.8335C22.0265 66.8335 22.4176 66.7424 22.7358 66.5601C23.0573 66.3778 23.2992 66.1424 23.4616 65.8541C23.6274 65.5657 23.7102 65.2625 23.7102 64.9443V63.8704C23.6605 63.9301 23.5511 63.9848 23.3821 64.0345C23.2164 64.0809 23.0241 64.1223 22.8054 64.1588C22.59 64.1919 22.3795 64.2218 22.174 64.2483C21.9718 64.2715 21.8078 64.2914 21.6818 64.3079C21.3769 64.3477 21.0919 64.4123 20.8267 64.5018C20.5649 64.588 20.3527 64.7189 20.1903 64.8946C20.0313 65.0669 19.9517 65.3022 19.9517 65.6005C19.9517 66.0082 20.1025 66.3165 20.4041 66.5253C20.709 66.7307 21.0952 66.8335 21.5625 66.8335ZM30.3461 60.0721V61.0665H26.3887V60.0721H30.3461ZM27.5421 58.2426H28.7154V65.521C28.7154 65.8524 28.7634 66.101 28.8596 66.2667C28.959 66.4291 29.0849 66.5385 29.2374 66.5949C29.3932 66.6479 29.5572 66.6744 29.7296 66.6744C29.8588 66.6744 29.9649 66.6678 30.0478 66.6545C30.1306 66.6379 30.1969 66.6247 30.2466 66.6147L30.4853 67.6687C30.4057 67.6986 30.2947 67.7284 30.1522 67.7582C30.0096 67.7914 29.829 67.8079 29.6103 67.8079C29.2788 67.8079 28.954 67.7367 28.6358 67.5941C28.321 67.4516 28.0591 67.2345 27.8503 66.9429C27.6448 66.6512 27.5421 66.2833 27.5421 65.8392V58.2426ZM35.2306 67.8676C34.4949 67.8676 33.8601 67.7052 33.3265 67.3804C32.7962 67.0522 32.3869 66.5949 32.0985 66.0082C31.8135 65.4182 31.671 64.7322 31.671 63.95C31.671 63.1678 31.8135 62.4784 32.0985 61.8818C32.3869 61.2819 32.7879 60.8146 33.3017 60.4798C33.8187 60.1417 34.4219 59.9727 35.1113 59.9727C35.5091 59.9727 35.9018 60.039 36.2896 60.1716C36.6774 60.3041 37.0304 60.5196 37.3485 60.8179C37.6667 61.1129 37.9203 61.504 38.1092 61.9912C38.2981 62.4784 38.3926 63.0783 38.3926 63.7909V64.288H32.5062V63.2738H37.1994C37.1994 62.843 37.1132 62.4585 36.9409 62.1204C36.7718 61.7824 36.5299 61.5156 36.215 61.32C35.9035 61.1245 35.5356 61.0267 35.1113 61.0267C34.644 61.0267 34.2396 61.1427 33.8983 61.3747C33.5602 61.6034 33.3 61.9017 33.1177 62.2696C32.9354 62.6375 32.8443 63.0319 32.8443 63.4528V64.129C32.8443 64.7057 32.9437 65.1945 33.1426 65.5956C33.3448 65.9933 33.6248 66.2966 33.9828 66.5054C34.3407 66.7109 34.7567 66.8136 35.2306 66.8136C35.5389 66.8136 35.8173 66.7705 36.0659 66.6843C36.3178 66.5949 36.5349 66.4623 36.7172 66.2866C36.8994 66.1076 37.0403 65.8856 37.1397 65.6204L38.2733 65.9386C38.1539 66.3231 37.9534 66.6611 37.6717 66.9528C37.39 67.2412 37.042 67.4665 36.6277 67.629C36.2134 67.788 35.7477 67.8676 35.2306 67.8676Z" fill="#3E3E3D"/>
<path d="M211.5 70.7085C211.088 70.7085 210.734 70.5592 210.441 70.2606C210.147 69.962 210 69.6113 210 69.2085V58.2085C210 57.8057 210.147 57.455 210.441 57.1564C210.734 56.8578 211.088 56.7085 211.5 56.7085H213V55.4585C213 55.246 213.071 55.0679 213.214 54.9241C213.357 54.7804 213.534 54.7085 213.746 54.7085C213.957 54.7085 214.135 54.7804 214.281 54.9241C214.427 55.0679 214.5 55.246 214.5 55.4585V56.7085H219.5V55.4585C219.5 55.246 219.571 55.0679 219.714 54.9241C219.857 54.7804 220.034 54.7085 220.246 54.7085C220.457 54.7085 220.635 54.7804 220.781 54.9241C220.927 55.0679 221 55.246 221 55.4585V56.7085H222.5C222.913 56.7085 223.266 56.8578 223.559 57.1564C223.853 57.455 224 57.8057 224 58.2085V69.2085C224 69.6113 223.853 69.962 223.559 70.2606C223.266 70.5592 222.913 70.7085 222.5 70.7085H211.5ZM211.5 69.2085H222.5V61.7085H211.5V69.2085ZM211.5 60.2085H222.5V58.2085H211.5V60.2085ZM217.004 64.7085C216.793 64.7085 216.615 64.637 216.469 64.4941C216.323 64.3512 216.25 64.1741 216.25 63.9629C216.25 63.7516 216.321 63.5731 216.464 63.4272C216.607 63.2814 216.784 63.2085 216.996 63.2085C217.207 63.2085 217.385 63.28 217.531 63.4229C217.677 63.5658 217.75 63.7429 217.75 63.9541C217.75 64.1654 217.679 64.3439 217.536 64.4897C217.393 64.6356 217.216 64.7085 217.004 64.7085ZM213.754 64.7085C213.543 64.7085 213.365 64.637 213.219 64.4941C213.073 64.3512 213 64.1741 213 63.9629C213 63.7516 213.071 63.5731 213.214 63.4272C213.357 63.2814 213.534 63.2085 213.746 63.2085C213.957 63.2085 214.135 63.28 214.281 63.4229C214.427 63.5658 214.5 63.7429 214.5 63.9541C214.5 64.1654 214.429 64.3439 214.286 64.4897C214.143 64.6356 213.966 64.7085 213.754 64.7085ZM220.254 64.7085C220.043 64.7085 219.865 64.637 219.719 64.4941C219.573 64.3512 219.5 64.1741 219.5 63.9629C219.5 63.7516 219.571 63.5731 219.714 63.4272C219.857 63.2814 220.034 63.2085 220.246 63.2085C220.457 63.2085 220.635 63.28 220.781 63.4229C220.927 63.5658 221 63.7429 221 63.9541C221 64.1654 220.929 64.3439 220.786 64.4897C220.643 64.6356 220.466 64.7085 220.254 64.7085ZM217.004 67.7085C216.793 67.7085 216.615 67.637 216.469 67.4941C216.323 67.3512 216.25 67.1741 216.25 66.9629C216.25 66.7516 216.321 66.5731 216.464 66.4272C216.607 66.2814 216.784 66.2085 216.996 66.2085C217.207 66.2085 217.385 66.28 217.531 66.4229C217.677 66.5658 217.75 66.7429 217.75 66.9541C217.75 67.1654 217.679 67.3439 217.536 67.4897C217.393 67.6356 217.216 67.7085 217.004 67.7085ZM213.754 67.7085C213.543 67.7085 213.365 67.637 213.219 67.4941C213.073 67.3512 213 67.1741 213 66.9629C213 66.7516 213.071 66.5731 213.214 66.4272C213.357 66.2814 213.534 66.2085 213.746 66.2085C213.957 66.2085 214.135 66.28 214.281 66.4229C214.427 66.5658 214.5 66.7429 214.5 66.9541C214.5 67.1654 214.429 67.3439 214.286 67.4897C214.143 67.6356 213.966 67.7085 213.754 67.7085ZM220.254 67.7085C220.043 67.7085 219.865 67.637 219.719 67.4941C219.573 67.3512 219.5 67.1741 219.5 66.9629C219.5 66.7516 219.571 66.5731 219.714 66.4272C219.857 66.2814 220.034 66.2085 220.246 66.2085C220.457 66.2085 220.635 66.28 220.781 66.4229C220.927 66.5658 221 66.7429 221 66.9541C221 67.1654 220.929 67.3439 220.786 67.4897C220.643 67.6356 220.466 67.7085 220.254 67.7085Z" fill="#45494A"/>
</g>
<mask id="path-7-inside-2_34_10622" fill="white">
<path d="M429 98.7085C429 92.0811 434.373 86.7085 441 86.7085H457C463.627 86.7085 469 92.0811 469 98.7085C469 105.336 463.627 110.708 457 110.708H441C434.373 110.708 429 105.336 429 98.7085Z"/>
</mask>
<path d="M429 98.7085C429 92.0811 434.373 86.7085 441 86.7085H457C463.627 86.7085 469 92.0811 469 98.7085C469 105.336 463.627 110.708 457 110.708H441C434.373 110.708 429 105.336 429 98.7085Z" fill="#E1E1E0"/>
<path d="M441 86.7085V88.7085H457V86.7085V84.7085H441V86.7085ZM457 110.708V108.708H441V110.708V112.708H457V110.708ZM441 110.708V108.708C435.477 108.708 431 104.231 431 98.7085H429H427C427 106.44 433.268 112.708 441 112.708V110.708ZM469 98.7085H467C467 104.231 462.523 108.708 457 108.708V110.708V112.708C464.732 112.708 471 106.44 471 98.7085H469ZM457 86.7085V88.7085C462.523 88.7085 467 93.1856 467 98.7085H469H471C471 90.9765 464.732 84.7085 457 84.7085V86.7085ZM441 86.7085V84.7085C433.268 84.7085 427 90.9765 427 98.7085H429H431C431 93.1856 435.477 88.7085 441 88.7085V86.7085Z" fill="#737272" mask="url(#path-7-inside-2_34_10622)"/>
<circle cx="441" cy="98.7085" r="8" fill="#737272"/>
<path d="M441 99.4862L438.278 102.208C438.176 102.31 438.046 102.361 437.889 102.361C437.731 102.361 437.602 102.31 437.5 102.208C437.398 102.107 437.347 101.977 437.347 101.82C437.347 101.662 437.398 101.533 437.5 101.431L440.222 98.7084L437.5 95.9862C437.398 95.8844 437.347 95.7547 437.347 95.5973C437.347 95.4399 437.398 95.3103 437.5 95.2084C437.602 95.1066 437.731 95.0557 437.889 95.0557C438.046 95.0557 438.176 95.1066 438.278 95.2084L441 97.9307L443.722 95.2084C443.824 95.1066 443.954 95.0557 444.111 95.0557C444.268 95.0557 444.398 95.1066 444.5 95.2084C444.602 95.3103 444.653 95.4399 444.653 95.5973C444.653 95.7547 444.602 95.8844 444.5 95.9862L441.778 98.7084L444.5 101.431C444.602 101.533 444.653 101.662 444.653 101.82C444.653 101.977 444.602 102.107 444.5 102.208C444.398 102.31 444.268 102.361 444.111 102.361C443.954 102.361 443.824 102.31 443.722 102.208L441 99.4862Z" fill="white"/>
<path d="M490.426 97.2085H489.193C489.12 96.8539 488.993 96.5423 488.81 96.2738C488.631 96.0054 488.413 95.78 488.154 95.5977C487.899 95.4121 487.616 95.2729 487.304 95.1801C486.992 95.0873 486.668 95.0409 486.33 95.0409C485.713 95.0409 485.155 95.1967 484.654 95.5082C484.157 95.8198 483.761 96.2788 483.466 96.8853C483.174 97.4919 483.028 98.236 483.028 99.1176C483.028 99.9992 483.174 100.743 483.466 101.35C483.761 101.956 484.157 102.415 484.654 102.727C485.155 103.039 485.713 103.194 486.33 103.194C486.668 103.194 486.992 103.148 487.304 103.055C487.616 102.962 487.899 102.825 488.154 102.642C488.413 102.457 488.631 102.23 488.81 101.961C488.993 101.69 489.12 101.378 489.193 101.027H490.426C490.333 101.547 490.164 102.013 489.919 102.424C489.674 102.835 489.369 103.184 489.004 103.473C488.64 103.758 488.23 103.975 487.776 104.124C487.326 104.273 486.843 104.348 486.33 104.348C485.461 104.348 484.689 104.136 484.013 103.711C483.337 103.287 482.805 102.684 482.417 101.902C482.029 101.119 481.835 100.191 481.835 99.1176C481.835 98.0437 482.029 97.1157 482.417 96.3335C482.805 95.5513 483.337 94.9481 484.013 94.5238C484.689 94.0996 485.461 93.8875 486.33 93.8875C486.843 93.8875 487.326 93.962 487.776 94.1112C488.23 94.2603 488.64 94.4791 489.004 94.7674C489.369 95.0525 489.674 95.4005 489.919 95.8115C490.164 96.2191 490.333 96.6848 490.426 97.2085ZM493.433 99.6147V104.208H492.259V94.0267H493.433V97.7653H493.532C493.711 97.3709 493.98 97.0577 494.338 96.8257C494.699 96.5904 495.179 96.4727 495.779 96.4727C496.3 96.4727 496.755 96.5771 497.146 96.7859C497.538 96.9914 497.841 97.3079 498.056 97.7355C498.275 98.1597 498.384 98.7 498.384 99.3562V104.208H497.211V99.4358C497.211 98.8292 497.054 98.3602 496.739 98.0288C496.427 97.6941 495.995 97.5267 495.441 97.5267C495.057 97.5267 494.712 97.6079 494.407 97.7703C494.106 97.9327 493.867 98.1697 493.691 98.4812C493.519 98.7928 493.433 99.1706 493.433 99.6147ZM502.778 104.387C502.294 104.387 501.855 104.296 501.461 104.114C501.066 103.928 500.753 103.662 500.521 103.314C500.289 102.962 500.173 102.538 500.173 102.041C500.173 101.603 500.259 101.249 500.431 100.977C500.604 100.702 500.834 100.486 501.123 100.331C501.411 100.175 501.729 100.059 502.077 99.9826C502.428 99.9031 502.781 99.8401 503.136 99.7937C503.6 99.7341 503.976 99.6893 504.265 99.6595C504.556 99.6263 504.768 99.5717 504.901 99.4954C505.037 99.4192 505.105 99.2866 505.105 99.0977V99.0579C505.105 98.5674 504.971 98.1862 504.702 97.9145C504.437 97.6427 504.034 97.5068 503.494 97.5068C502.934 97.5068 502.495 97.6294 502.176 97.8747C501.858 98.12 501.635 98.3818 501.505 98.6602L500.392 98.2625C500.591 97.7985 500.856 97.4372 501.187 97.1787C501.522 96.9168 501.886 96.7345 502.281 96.6318C502.679 96.5257 503.07 96.4727 503.454 96.4727C503.699 96.4727 503.981 96.5025 504.299 96.5622C504.621 96.6185 504.931 96.7362 505.229 96.9152C505.531 97.0941 505.781 97.3643 505.98 97.7255C506.179 98.0868 506.278 98.5707 506.278 99.1772V104.208H505.105V103.174H505.045C504.966 103.34 504.833 103.517 504.647 103.706C504.462 103.895 504.215 104.056 503.907 104.189C503.598 104.321 503.222 104.387 502.778 104.387ZM502.957 103.333C503.421 103.333 503.812 103.242 504.13 103.06C504.452 102.878 504.694 102.642 504.856 102.354C505.022 102.066 505.105 101.762 505.105 101.444V100.37C505.055 100.43 504.946 100.485 504.777 100.534C504.611 100.581 504.419 100.622 504.2 100.659C503.984 100.692 503.774 100.722 503.569 100.748C503.366 100.771 503.202 100.791 503.076 100.808C502.771 100.848 502.486 100.912 502.221 101.002C501.959 101.088 501.747 101.219 501.585 101.395C501.426 101.567 501.346 101.802 501.346 102.101C501.346 102.508 501.497 102.816 501.799 103.025C502.104 103.231 502.49 103.333 502.957 103.333ZM508.42 104.208V96.5721H509.553V97.7653H509.653C509.812 97.3576 510.068 97.0411 510.423 96.8157C510.778 96.587 511.204 96.4727 511.701 96.4727C512.205 96.4727 512.624 96.587 512.959 96.8157C513.297 97.0411 513.56 97.3576 513.749 97.7653H513.829C514.024 97.3709 514.318 97.0577 514.709 96.8257C515.1 96.5904 515.569 96.4727 516.116 96.4727C516.798 96.4727 517.357 96.6865 517.791 97.114C518.225 97.5383 518.442 98.1995 518.442 99.0977V104.208H517.269V99.0977C517.269 98.5343 517.115 98.1316 516.807 97.8896C516.498 97.6477 516.135 97.5267 515.718 97.5267C515.181 97.5267 514.765 97.6891 514.47 98.0139C514.175 98.3354 514.028 98.7431 514.028 99.2369V104.208H512.834V98.9784C512.834 98.5442 512.693 98.1945 512.412 97.9294C512.13 97.6609 511.767 97.5267 511.323 97.5267C511.018 97.5267 510.733 97.6079 510.468 97.7703C510.206 97.9327 509.994 98.1581 509.831 98.4464C509.672 98.7315 509.593 99.0612 509.593 99.4358V104.208H508.42ZM520.588 107.072V96.5721H521.721V97.7852H521.86C521.946 97.6526 522.066 97.4836 522.218 97.2781C522.374 97.0693 522.596 96.8837 522.884 96.7213C523.176 96.5556 523.57 96.4727 524.068 96.4727C524.711 96.4727 525.277 96.6334 525.768 96.9549C526.258 97.2764 526.641 97.7322 526.916 98.3221C527.191 98.9121 527.329 99.6081 527.329 100.41C527.329 101.219 527.191 101.92 526.916 102.513C526.641 103.103 526.26 103.561 525.773 103.885C525.286 104.207 524.724 104.368 524.088 104.368C523.597 104.368 523.204 104.286 522.909 104.124C522.614 103.958 522.387 103.771 522.228 103.562C522.069 103.35 521.946 103.174 521.86 103.035H521.761V107.072H520.588ZM521.741 100.39C521.741 100.967 521.825 101.476 521.994 101.917C522.164 102.354 522.41 102.697 522.735 102.946C523.06 103.191 523.458 103.314 523.928 103.314C524.419 103.314 524.828 103.184 525.156 102.926C525.488 102.664 525.736 102.313 525.902 101.872C526.071 101.428 526.156 100.934 526.156 100.39C526.156 99.8534 526.073 99.3695 525.907 98.9386C525.745 98.5044 525.498 98.1614 525.166 97.9095C524.838 97.6543 524.426 97.5267 523.928 97.5267C523.451 97.5267 523.05 97.6477 522.725 97.8896C522.401 98.1282 522.155 98.463 521.99 98.8939C521.824 99.3214 521.741 99.8202 521.741 100.39ZM536.159 104.368C535.469 104.368 534.864 104.204 534.344 103.875C533.827 103.547 533.423 103.088 533.131 102.498C532.843 101.908 532.698 101.219 532.698 100.43C532.698 99.6346 532.843 98.9403 533.131 98.347C533.423 97.7537 533.827 97.293 534.344 96.9649C534.864 96.6368 535.469 96.4727 536.159 96.4727C536.848 96.4727 537.451 96.6368 537.968 96.9649C538.489 97.293 538.893 97.7537 539.181 98.347C539.473 98.9403 539.619 99.6346 539.619 100.43C539.619 101.219 539.473 101.908 539.181 102.498C538.893 103.088 538.489 103.547 537.968 103.875C537.451 104.204 536.848 104.368 536.159 104.368ZM536.159 103.314C536.682 103.314 537.113 103.179 537.451 102.911C537.789 102.642 538.039 102.289 538.202 101.852C538.364 101.414 538.445 100.941 538.445 100.43C538.445 99.9197 538.364 99.4441 538.202 99.0032C538.039 98.5624 537.789 98.2061 537.451 97.9343C537.113 97.6626 536.682 97.5267 536.159 97.5267C535.635 97.5267 535.204 97.6626 534.866 97.9343C534.528 98.2061 534.278 98.5624 534.115 99.0032C533.953 99.4441 533.872 99.9197 533.872 100.43C533.872 100.941 533.953 101.414 534.115 101.852C534.278 102.289 534.528 102.642 534.866 102.911C535.204 103.179 535.635 103.314 536.159 103.314ZM541.569 104.208V94.0267H542.742V97.7852H542.842C542.928 97.6526 543.047 97.4836 543.2 97.2781C543.355 97.0693 543.577 96.8837 543.866 96.7213C544.157 96.5556 544.552 96.4727 545.049 96.4727C545.692 96.4727 546.259 96.6334 546.749 96.9549C547.24 97.2764 547.623 97.7322 547.898 98.3221C548.173 98.9121 548.31 99.6081 548.31 100.41C548.31 101.219 548.173 101.92 547.898 102.513C547.623 103.103 547.241 103.561 546.754 103.885C546.267 104.207 545.705 104.368 545.069 104.368C544.578 104.368 544.186 104.286 543.891 104.124C543.596 103.958 543.369 103.771 543.21 103.562C543.05 103.35 542.928 103.174 542.842 103.035H542.702V104.208H541.569ZM542.722 100.39C542.722 100.967 542.807 101.476 542.976 101.917C543.145 102.354 543.392 102.697 543.717 102.946C544.041 103.191 544.439 103.314 544.91 103.314C545.4 103.314 545.81 103.184 546.138 102.926C546.469 102.664 546.718 102.313 546.884 101.872C547.053 101.428 547.137 100.934 547.137 100.39C547.137 99.8534 547.054 99.3695 546.888 98.9386C546.726 98.5044 546.479 98.1614 546.148 97.9095C545.82 97.6543 545.407 97.5267 544.91 97.5267C544.433 97.5267 544.031 97.6477 543.707 97.8896C543.382 98.1282 543.137 98.463 542.971 98.8939C542.805 99.3214 542.722 99.8202 542.722 100.39ZM551.278 94.0267V104.208H550.105V94.0267H551.278ZM553.427 104.208V96.5721H554.601V104.208H553.427ZM554.024 95.2994C553.795 95.2994 553.598 95.2215 553.432 95.0657C553.27 94.91 553.189 94.7227 553.189 94.504C553.189 94.2852 553.27 94.0979 553.432 93.9422C553.598 93.7864 553.795 93.7085 554.024 93.7085C554.253 93.7085 554.448 93.7864 554.611 93.9422C554.776 94.0979 554.859 94.2852 554.859 94.504C554.859 94.7227 554.776 94.91 554.611 95.0657C554.448 95.2215 554.253 95.2994 554.024 95.2994ZM559.832 107.231C559.265 107.231 558.778 107.158 558.37 107.012C557.963 106.87 557.623 106.681 557.351 106.446C557.083 106.214 556.869 105.965 556.71 105.7L557.645 105.044C557.751 105.183 557.885 105.342 558.047 105.521C558.21 105.703 558.432 105.861 558.713 105.993C558.998 106.129 559.371 106.197 559.832 106.197C560.449 106.197 560.957 106.048 561.358 105.75C561.759 105.451 561.96 104.984 561.96 104.348V102.797H561.86C561.774 102.936 561.652 103.108 561.493 103.314C561.337 103.516 561.111 103.696 560.816 103.856C560.525 104.011 560.13 104.089 559.633 104.089C559.017 104.089 558.463 103.943 557.973 103.652C557.485 103.36 557.099 102.936 556.814 102.379C556.533 101.822 556.392 101.146 556.392 100.351C556.392 99.5683 556.529 98.8872 556.804 98.3072C557.079 97.7239 557.462 97.2731 557.953 96.9549C558.443 96.6334 559.01 96.4727 559.653 96.4727C560.15 96.4727 560.545 96.5556 560.836 96.7213C561.131 96.8837 561.357 97.0693 561.512 97.2781C561.672 97.4836 561.794 97.6526 561.88 97.7852H562V96.5721H563.133V104.427C563.133 105.083 562.984 105.617 562.686 106.028C562.391 106.442 561.993 106.746 561.493 106.938C560.995 107.133 560.442 107.231 559.832 107.231ZM559.792 103.035C560.263 103.035 560.661 102.927 560.985 102.712C561.31 102.497 561.557 102.187 561.726 101.782C561.895 101.378 561.98 100.894 561.98 100.331C561.98 99.7805 561.897 99.2949 561.731 98.874C561.565 98.4531 561.32 98.1233 560.995 97.8846C560.671 97.646 560.27 97.5267 559.792 97.5267C559.295 97.5267 558.881 97.6526 558.549 97.9045C558.221 98.1564 557.974 98.4945 557.809 98.9187C557.646 99.343 557.565 99.8136 557.565 100.331C557.565 100.861 557.648 101.33 557.814 101.738C557.983 102.142 558.231 102.46 558.559 102.692C558.891 102.921 559.302 103.035 559.792 103.035ZM567.528 104.387C567.044 104.387 566.605 104.296 566.211 104.114C565.816 103.928 565.503 103.662 565.271 103.314C565.039 102.962 564.923 102.538 564.923 102.041C564.923 101.603 565.009 101.249 565.181 100.977C565.354 100.702 565.584 100.486 565.873 100.331C566.161 100.175 566.479 100.059 566.827 99.9826C567.178 99.9031 567.531 99.8401 567.886 99.7937C568.35 99.7341 568.726 99.6893 569.015 99.6595C569.306 99.6263 569.518 99.5717 569.651 99.4954C569.787 99.4192 569.855 99.2866 569.855 99.0977V99.0579C569.855 98.5674 569.721 98.1862 569.452 97.9145C569.187 97.6427 568.784 97.5068 568.244 97.5068C567.684 97.5068 567.245 97.6294 566.926 97.8747C566.608 98.12 566.385 98.3818 566.255 98.6602L565.142 98.2625C565.341 97.7985 565.606 97.4372 565.937 97.1787C566.272 96.9168 566.636 96.7345 567.031 96.6318C567.429 96.5257 567.82 96.4727 568.204 96.4727C568.449 96.4727 568.731 96.5025 569.049 96.5622C569.371 96.6185 569.681 96.7362 569.979 96.9152C570.281 97.0941 570.531 97.3643 570.73 97.7255C570.929 98.0868 571.028 98.5707 571.028 99.1772V104.208H569.855V103.174H569.795C569.716 103.34 569.583 103.517 569.397 103.706C569.212 103.895 568.965 104.056 568.657 104.189C568.348 104.321 567.972 104.387 567.528 104.387ZM567.707 103.333C568.171 103.333 568.562 103.242 568.88 103.06C569.202 102.878 569.444 102.642 569.606 102.354C569.772 102.066 569.855 101.762 569.855 101.444V100.37C569.805 100.43 569.696 100.485 569.527 100.534C569.361 100.581 569.169 100.622 568.95 100.659C568.734 100.692 568.524 100.722 568.319 100.748C568.116 100.771 567.952 100.791 567.826 100.808C567.521 100.848 567.236 100.912 566.971 101.002C566.709 101.088 566.497 101.219 566.335 101.395C566.176 101.567 566.096 101.802 566.096 102.101C566.096 102.508 566.247 102.816 566.549 103.025C566.854 103.231 567.24 103.333 567.707 103.333ZM576.491 96.5721V97.5665H572.533V96.5721H576.491ZM573.687 94.7426H574.86V102.021C574.86 102.352 574.908 102.601 575.004 102.767C575.104 102.929 575.229 103.039 575.382 103.095C575.538 103.148 575.702 103.174 575.874 103.174C576.003 103.174 576.109 103.168 576.192 103.155C576.275 103.138 576.341 103.125 576.391 103.115L576.63 104.169C576.55 104.199 576.439 104.228 576.297 104.258C576.154 104.291 575.974 104.308 575.755 104.308C575.423 104.308 575.099 104.237 574.78 104.094C574.465 103.952 574.204 103.735 573.995 103.443C573.789 103.151 573.687 102.783 573.687 102.339V94.7426ZM581.276 104.368C580.586 104.368 579.981 104.204 579.461 103.875C578.944 103.547 578.54 103.088 578.248 102.498C577.96 101.908 577.816 101.219 577.816 100.43C577.816 99.6346 577.96 98.9403 578.248 98.347C578.54 97.7537 578.944 97.293 579.461 96.9649C579.981 96.6368 580.586 96.4727 581.276 96.4727C581.965 96.4727 582.568 96.6368 583.085 96.9649C583.606 97.293 584.01 97.7537 584.298 98.347C584.59 98.9403 584.736 99.6346 584.736 100.43C584.736 101.219 584.59 101.908 584.298 102.498C584.01 103.088 583.606 103.547 583.085 103.875C582.568 104.204 581.965 104.368 581.276 104.368ZM581.276 103.314C581.799 103.314 582.23 103.179 582.568 102.911C582.906 102.642 583.157 102.289 583.319 101.852C583.481 101.414 583.563 100.941 583.563 100.43C583.563 99.9197 583.481 99.4441 583.319 99.0032C583.157 98.5624 582.906 98.2061 582.568 97.9343C582.23 97.6626 581.799 97.5267 581.276 97.5267C580.752 97.5267 580.321 97.6626 579.983 97.9343C579.645 98.2061 579.395 98.5624 579.232 99.0032C579.07 99.4441 578.989 99.9197 578.989 100.43C578.989 100.941 579.07 101.414 579.232 101.852C579.395 102.289 579.645 102.642 579.983 102.911C580.321 103.179 580.752 103.314 581.276 103.314ZM586.527 104.208V96.5721H587.7V104.208H586.527ZM587.124 95.2994C586.895 95.2994 586.698 95.2215 586.532 95.0657C586.37 94.91 586.288 94.7227 586.288 94.504C586.288 94.2852 586.37 94.0979 586.532 93.9422C586.698 93.7864 586.895 93.7085 587.124 93.7085C587.352 93.7085 587.548 93.7864 587.71 93.9422C587.876 94.0979 587.959 94.2852 587.959 94.504C587.959 94.7227 587.876 94.91 587.71 95.0657C587.548 95.2215 587.352 95.2994 587.124 95.2994ZM589.849 104.208V96.5721H590.983V97.7255H591.062C591.202 97.3477 591.453 97.0411 591.818 96.8058C592.183 96.5705 592.594 96.4528 593.051 96.4528C593.137 96.4528 593.245 96.4545 593.374 96.4578C593.503 96.4611 593.601 96.4661 593.667 96.4727V97.6659C593.628 97.6559 593.537 97.641 593.394 97.6211C593.255 97.5979 593.107 97.5863 592.952 97.5863C592.58 97.5863 592.249 97.6642 591.957 97.82C591.669 97.9725 591.44 98.1846 591.271 98.4564C591.105 98.7248 591.023 99.0314 591.023 99.3761V104.208H589.849ZM598.028 104.368C597.292 104.368 596.657 104.205 596.123 103.88C595.593 103.552 595.184 103.095 594.895 102.508C594.61 101.918 594.468 101.232 594.468 100.45C594.468 99.6678 594.61 98.9784 594.895 98.3818C595.184 97.7819 595.585 97.3146 596.099 96.9798C596.616 96.6417 597.219 96.4727 597.908 96.4727C598.306 96.4727 598.699 96.539 599.086 96.6716C599.474 96.8041 599.827 97.0196 600.145 97.3179C600.464 97.6129 600.717 98.004 600.906 98.4912C601.095 98.9784 601.189 99.5783 601.189 100.291V100.788H595.303V99.7738H599.996C599.996 99.343 599.91 98.9585 599.738 98.6204C599.569 98.2824 599.327 98.0156 599.012 97.82C598.7 97.6245 598.332 97.5267 597.908 97.5267C597.441 97.5267 597.037 97.6427 596.695 97.8747C596.357 98.1034 596.097 98.4017 595.915 98.7696C595.732 99.1375 595.641 99.5319 595.641 99.9528V100.629C595.641 101.206 595.741 101.695 595.939 102.096C596.142 102.493 596.422 102.797 596.78 103.005C597.138 103.211 597.554 103.314 598.028 103.314C598.336 103.314 598.614 103.271 598.863 103.184C599.115 103.095 599.332 102.962 599.514 102.787C599.696 102.608 599.837 102.386 599.937 102.12L601.07 102.439C600.951 102.823 600.75 103.161 600.469 103.453C600.187 103.741 599.839 103.967 599.425 104.129C599.01 104.288 598.545 104.368 598.028 104.368Z" fill="#201F1F"/>
<defs>
<filter id="filter0_i_34_10622" x="0" y="46.7085" width="235" height="33" filterUnits="userSpaceOnUse" color-interpolation-filters="sRGB">
<feFlood flood-opacity="0" result="BackgroundImageFix"/>
<feBlend mode="normal" in="SourceGraphic" in2="BackgroundImageFix" result="shape"/>
<feColorMatrix in="SourceAlpha" type="matrix" values="0 0 0 0 0 0 0 0 0 0 0 0 0 0 0 0 0 0 127 0" result="hardAlpha"/>
<feOffset dy="1"/>
<feGaussianBlur stdDeviation="2"/>
<feComposite in2="hardAlpha" operator="arithmetic" k2="-1" k3="1"/>
<feColorMatrix type="matrix" values="0 0 0 0 0 0 0 0 0 0 0 0 0 0 0 0 0 0 0.14 0"/>
<feBlend mode="normal" in2="shape" result="effect1_innerShadow_34_10622"/>
</filter>
</defs>
</svg>
