<svg width="32" height="32" viewBox="0 0 32 32" fill="none" xmlns="http://www.w3.org/2000/svg">
<path d="M0 4C0 1.79086 1.79086 0 4 0H28C30.2091 0 32 1.79086 32 4V28C32 30.2091 30.2091 32 28 32H4C1.79086 32 0 30.2091 0 28V4Z" fill="#DE2048"/>
<path d="M11.8333 23.5C11.3749 23.5 10.9826 23.3368 10.6562 23.0104C10.3298 22.684 10.1666 22.2917 10.1666 21.8333V11C9.93047 11 9.73256 10.9201 9.57284 10.7604C9.41311 10.6007 9.33325 10.4028 9.33325 10.1667C9.33325 9.93056 9.41311 9.73264 9.57284 9.57292C9.73256 9.41319 9.93047 9.33333 10.1666 9.33333H13.4999C13.4999 9.09722 13.5798 8.89931 13.7395 8.73958C13.8992 8.57986 14.0971 8.5 14.3333 8.5H17.6666C17.9027 8.5 18.1006 8.57986 18.2603 8.73958C18.4201 8.89931 18.4999 9.09722 18.4999 9.33333H21.8333C22.0694 9.33333 22.2673 9.41319 22.427 9.57292C22.5867 9.73264 22.6666 9.93056 22.6666 10.1667C22.6666 10.4028 22.5867 10.6007 22.427 10.7604C22.2673 10.9201 22.0694 11 21.8333 11V21.8333C21.8333 22.2917 21.6701 22.684 21.3437 23.0104C21.0173 23.3368 20.6249 23.5 20.1666 23.5H11.8333ZM20.1666 11H11.8333V21.8333H20.1666V11ZM14.3333 20.1667C14.5694 20.1667 14.7673 20.0868 14.927 19.9271C15.0867 19.7674 15.1666 19.5694 15.1666 19.3333V13.5C15.1666 13.2639 15.0867 13.066 14.927 12.9062C14.7673 12.7465 14.5694 12.6667 14.3333 12.6667C14.0971 12.6667 13.8992 12.7465 13.7395 12.9062C13.5798 13.066 13.4999 13.2639 13.4999 13.5V19.3333C13.4999 19.5694 13.5798 19.7674 13.7395 19.9271C13.8992 20.0868 14.0971 20.1667 14.3333 20.1667ZM17.6666 20.1667C17.9027 20.1667 18.1006 20.0868 18.2603 19.9271C18.4201 19.7674 18.4999 19.5694 18.4999 19.3333V13.5C18.4999 13.2639 18.4201 13.066 18.2603 12.9062C18.1006 12.7465 17.9027 12.6667 17.6666 12.6667C17.4305 12.6667 17.2326 12.7465 17.0728 12.9062C16.9131 13.066 16.8333 13.2639 16.8333 13.5V19.3333C16.8333 19.5694 16.9131 19.7674 17.0728 19.9271C17.2326 20.0868 17.4305 20.1667 17.6666 20.1667Z" fill="white"/>
</svg>
