<svg width="24" height="24" viewBox="0 0 24 24" fill="none" xmlns="http://www.w3.org/2000/svg">
<g clip-path="url(#clip0_3_73)">
<path d="M0 4C0 1.79086 1.79086 0 4 0H20C22.2091 0 24 1.79086 24 4V20C24 22.2091 22.2091 24 20 24H4C1.79086 24 0 22.2091 0 20V4Z" fill="#225082"/>
<path d="M11.1578 7.27273V16H9.5641L5.76722 10.5071H5.7033V16H3.85813V7.27273H5.47745L9.2445 12.7614H9.3212V7.27273H11.1578ZM14.1866 16H12.2093L15.2221 7.27273H17.6L20.6085 16H18.6312L16.4451 9.26705H16.377L14.1866 16ZM14.063 12.5696H18.7335V14.0099H14.063V12.5696Z" fill="#E6EEF8"/>
</g>
<defs>
<clipPath id="clip0_3_73">
<path d="M0 4C0 1.79086 1.79086 0 4 0H20C22.2091 0 24 1.79086 24 4V20C24 22.2091 22.2091 24 20 24H4C1.79086 24 0 22.2091 0 20V4Z" fill="white"/>
</clipPath>
</defs>
</svg>
